<svg width="60" height="60" viewBox="0 0 60 60" fill="none" xmlns="http://www.w3.org/2000/svg">
<path d="M51.5625 6.5625H8.4375C7.40039 6.5625 6.5625 7.40039 6.5625 8.4375V51.5625C6.5625 52.5996 7.40039 53.4375 8.4375 53.4375H51.5625C52.5996 53.4375 53.4375 52.5996 53.4375 51.5625V8.4375C53.4375 7.40039 52.5996 6.5625 51.5625 6.5625ZM42.4043 20.2441C39.4688 20.2441 38.9004 21.6387 38.9004 23.6895V28.207H45.9082L44.9941 35.2793H38.9004V53.4375H31.5938V35.2852H25.4824V28.207H31.5938V22.9922C31.5938 16.9395 35.291 13.6406 40.6934 13.6406C43.2832 13.6406 45.5039 13.834 46.1543 13.9219V20.2441H42.4043Z" fill="#1B7062"/>
</svg>
